PathFileType	3	(X/Y/Z)	C:\Users\koon_\Desktop\
DataRate	CameraRate	NumFrames	NumMarkers	Units	OrigDataRate	OrigDataStartFrame	OrigNumFrames
100.0	100.0	10	27	mm	100.0	2692	3589	
Frame#	Time	get:LFHD			get:RFHD			get:LBHD			get:RBHD			get:C7			get:T10			get:CLAV			get:STRN			get:RBAK			get:LSHO			get:LUPA			get:LELB			get:LFRA			get:LWRA			get:LWRB			get:LFIN			get:RSHO			get:RUPA			get:RELB			get:RFRA			get:RWRA			get:RWRB			get:RFIN			get:LASI			get:RASI			get:LPSI			get:RPSI			
		X1	Y1	Z1	X2	Y2	Z2	X3	Y3	Z3	X4	Y4	Z4	X5	Y5	Z5	X6	Y6	Z6	X7	Y7	Z7	X8	Y8	Z8	X9	Y9	Z9	X10	Y10	Z10	X11	Y11	Z11	X12	Y12	Z12	X13	Y13	Z13	X14	Y14	Z14	X15	Y15	Z15	X16	Y16	Z16	X17	Y17	Z17	X18	Y18	Z18	X19	Y19	Z19	X20	Y20	Z20	X21	Y21	Z21	X22	Y22	Z22	X23	Y23	Z23	X24	Y24	Z24	X25	Y25	Z25	X26	Y26	Z26	X27	Y27	Z27	
2692	26.91	276.92389	1271.4175	49.47113	165.86969	1282.3655	145.76636	194.37737	1322.1277	-47.988628	80.818871	1326.4232	55.143127	85.209076	1187.4121	-96.512749	9.3529215	1052.3503	-246.73363	117.09089	994.30896	-1.9519793	67.276886	860.01703	-67.221115	-31.437674	1156.0255	-106.14281	248.7921	1122.7548	-103.41499	275.21561	919.65857	-181.99529	263.09808	839.32001	-284.68378	285.91965	860.81891	-200.25151	253.81625	884.31628	-44.158447	284.30252	816.4491	-48.805183	314.41415	843.49316	14.021669	6.8199854	1139.3273	40.395809	-97.905861	1051.9366	69.359207	-241.57712	889.9165	23.023607	-100.23447	924.7865	85.686165	-8.8294849	931.50513	121.12032	-38.930866	870.22809	144.33823	9.4453373	913.01306	198.25861	137.87375	782.10059	-219.7832	-145.22314	807.73016	-147.87738	7.3544044	827.38904	-380.77313	-80.522072	829.18567	-360.58026
2693	26.92	281.66559	1271.1478	44.734844	172.88356	1281.6713	143.55342	196.8248	1322.0093	-50.722851	85.788628	1325.7721	55.23428	86.663193	1187.321	-97.934639	7.1306725	1052.2468	-245.5975	121.19129	993.9422	-3.7494545	69.87532	860.22296	-66.166557	-30.261171	1155.5647	-103.57731	250.19702	1122.728	-108.51352	273.95175	920.11694	-189.62207	258.46469	840.87616	-292.43884	284.20215	862.61316	-208.87636	257.37796	886.60907	-52.053646	288.19037	819.03705	-57.502609	320.41885	846.49243	3.9596591	11.847484	1138.7084	41.62595	-91.741081	1051.078	73.79702	-235.99829	888.35461	31.700392	-92.988213	924.44739	89.807373	-0.50083715	931.93481	122.32241	-29.422642	870.40533	146.48224	20.45949	913.45721	198.71519	136.53166	782.03186	-221.05452	-145.17374	807.56879	-144.35616	3.1925244	827.27155	-379.76273	-84.162621	829.35486	-358.5069
2694	26.93	286.28394	1270.8594	39.915272	179.69585	1280.9474	141.20819	199.18959	1321.9659	-53.48341	90.651108	1325.115	55.16843	87.878426	1187.0698	-97.865456	4.9494648	1052.1125	-244.39592	125.13742	993.61194	-5.7334366	73.062943	860.00073	-66.918358	-29.190086	1154.9518	-99.974648	251.25378	1122.8395	-113.60187	272.39642	920.62006	-196.9277	253.74434	842.22809	-299.62451	282.54547	864.48505	-216.95352	260.72769	888.88892	-59.628616	291.88715	821.513	-65.951988	326.1553	849.50336	-5.857204	16.845774	1138.1637	42.787106	-85.53479	1050.2498	78.203995	-230.05473	886.6499	40.529011	-85.499489	924.03424	93.925575	8.0280838	932.39612	123.59778	-19.711617	870.54999	148.40498	31.513222	913.89319	198.98346	135.13936	781.86798	-223.31433	-145.01463	807.43585	-140.79672	-0.79363	827.2323	-378.80319	-87.839142	829.1723	-355.41888
2695	26.94	290.73636	1270.6278	35.123844	186.43004	1280.2544	138.83907	201.3606	1321.8674	-55.946133	95.779465	1324.2321	54.74287	88.917274	1186.8496	-97.849579	2.8547795	1052.062	-243.26077	129.09418	993.31305	-7.6503553	76.405945	859.82446	-67.809952	-28.016434	1154.5682	-97.663925	251.78954	1123.1262	-118.83163	270.58884	921.13788	-203.74631	248.94623	843.44104	-306.28979	280.37054	865.95465	-224.68272	263.88904	891.09802	-66.845673	295.82379	823.98395	-74.200371	331.58429	852.47144	-15.516296	21.792191	1137.5831	44.218979	-79.194878	1049.4896	82.51828	-223.65623	884.85724	49.393536	-77.757729	923.58655	98.103264	16.709974	932.84052	124.74839	-9.8448849	870.73438	150.21138	42.812366	914.29474	199.15579	133.65092	781.51373	-226.2991	-144.8268	807.27765	-137.29276	-4.71029	827.1701	-377.75226	-91.31955	829.31787	-352.98383
2696	26.95	294.98892	1270.3945	30.382526	192.87671	1279.6581	136.27084	203.64369	1321.6525	-58.387638	100.4882	1323.7316	54.333744	89.989609	1186.7018	-98.073578	0.84351623	1052.0264	-241.98335	132.80646	993.08185	-9.6178284	78.887451	859.53558	-69.015007	-26.69383	1154.2303	-95.536156	252.39497	1123.3257	-123.80669	268.62842	921.61908	-210.35002	244.05362	844.50226	-312.30667	278.19638	867.40063	-231.82607	266.81216	893.26489	-73.813904	298.96432	826.36761	-81.992317	336.69208	855.43347	-24.970467	26.66835	1137.166	45.326309	-72.643524	1048.7141	86.544998	-216.97385	882.87231	58.004658	-69.841385	923.10382	102.15961	25.516754	933.22516	125.80603	0.72121525	870.16095	150.30844	54.200893	914.66309	199.12878	132.70633	782.15485	-225.10887	-144.98984	806.71503	-133.82359	-8.5019894	827.23779	-376.68985	-94.663147	829.33691	-350.21512
2697	26.96	299.05759	1270.2435	25.678642	199.14246	1279.0487	133.6301	205.90594	1321.7386	-61.058289	105.08984	1323.3937	53.816311	91.092018	1186.631	-98.421921	-1.1294253	1052.1857	-240.96602	136.42006	992.91345	-11.694592	80.947441	859.37463	-69.488579	-25.399191	1153.9027	-93.559105	252.84285	1123.5729	-128.73914	266.49176	922.06183	-216.69197	239.22131	845.32813	-317.82086	275.95877	868.74939	-238.5699	269.54968	895.3562	-80.409248	301.98209	828.73053	-89.535858	341.57031	858.24377	-34.115242	31.559334	1136.7831	46.238605	-65.741379	1047.5209	89.776939	-209.67793	880.93982	67.036064	-61.610596	922.51208	106.20842	34.482414	933.53882	126.74979	11.062883	870.17212	151.54625	65.638962	915.08612	198.96486	132.40593	782.24542	-227.50804	-142.87273	806.48907	-129.14188	-12.24094	827.25146	-375.42032	-97.88356	829.46387	-347.60727
2698	26.97	303.0022	1270.1154	20.995955	205.28618	1278.5822	130.94867	208.04694	1321.8405	-63.715347	109.5574	1323.1011	53.15527	91.666107	1186.4706	-98.09021	-3.0708098	1052.5029	-240.13394	139.88672	992.77185	-13.761516	83.422546	859.10864	-70.525642	-24.068174	1153.4678	-90.901215	253.14632	1123.8009	-133.54451	264.55374	922.58508	-222.39839	234.45587	846.04694	-322.73819	273.36981	869.76599	-244.86638	272.10117	897.36444	-86.755165	304.95117	830.92609	-96.824257	346.01904	861.02472	-43.114418	36.337753	1136.4581	46.927608	-58.847645	1046.6558	92.446632	-202.13097	878.95258	75.841331	-53.157867	921.89496	110.17271	43.586094	933.82178	127.43237	21.428516	870.22528	152.91132	77.001167	915.71039	198.48856	131.2626	782.40637	-229.06503	-141.98361	806.54279	-126.18198	-15.890332	827.33899	-374.21793	-101.04536	829.61591	-344.94342
2699	26.98	306.85349	1270.0414	16.095209	211.15405	1278.1199	128.11751	210.13046	1321.9954	-66.365433	113.94742	1322.9056	52.422466	92.93058	1186.8445	-99.825867	-4.7870107	1052.3669	-238.62958	142.80838	992.56329	-16.002802	84.447571	859.22516	-70.114906	-22.708246	1153.202	-88.608025	253.33011	1124.0889	-138.214	262.81415	922.91223	-227.52444	229.69864	846.52838	-327.15353	270.81796	870.82452	-250.74246	274.79074	899.26898	-92.987717	307.57788	833.0603	-103.55585	350.30698	863.71478	-51.73695	41.055511	1136.229	47.755417	-52.018448	1046.0194	95.551132	-193.82968	876.99042	85.16954	-44.460739	921.27759	113.90563	52.80093	933.99518	127.72979	31.940825	870.38232	154.31987	88.393791	916.37549	197.9418	130.1042	781.93298	-230.29373	-141.27289	805.76501	-120.18398	-19.539099	827.44373	-372.83514	-104.14423	829.84973	-342.31662
2700	26.99	310.50598	1270.0591	11.332512	216.89262	1277.8298	125.37569	212.13432	1322.2029	-69.012878	118.27254	1322.7531	51.70388	93.891975	1186.7252	-99.71788	-6.4787602	1052.4579	-237.24924	146.57065	992.66931	-17.677027	86.441513	859.1936	-70.794678	-21.33115	1152.8871	-86.361969	253.4438	1124.371	-142.65408	260.76828	923.35492	-232.60803	225.03563	846.88196	-331.07004	268.47754	871.77075	-256.14032	276.92459	901.18726	-98.648659	310.04715	835.24951	-110.11977	354.39694	866.45673	-60.150925	45.742756	1136.0366	48.150883	-45.06274	1045.4489	98.985207	-185.30919	874.98657	93.955055	-35.649723	920.65643	117.53994	62.029919	934.26349	128.28032	42.520313	870.52234	155.29312	99.745117	917.12689	197.19006	128.7126	782.34607	-231.27141	-140.78883	805.95129	-117.26537	-23.065189	827.61786	-371.46411	-107.08538	830.03094	-339.60187
2701	27	313.89935	1270.0728	6.6958508	222.4211	1277.5095	122.42681	213.99219	1322.4445	-71.668839	122.42873	1322.7056	50.716015	94.886009	1186.7483	-100.1562	-8.1161194	1052.5189	-235.76286	149.75648	992.67511	-19.618979	88.622307	859.34863	-71.332703	-19.878773	1152.7008	-84.47419	253.44067	1124.7032	-147.13954	258.81653	923.66547	-237.23897	220.54352	847.12054	-334.61188	266.08337	872.60681	-261.16006	279.14212	903.03931	-104.13572	312.45776	837.41583	-116.36694	358.19955	869.04822	-68.213287	50.274876	1135.9473	48.623253	-38.015625	1044.9456	102.1291	-176.36955	872.98456	102.71584	-26.574886	920.01471	121.09625	71.057373	934.58545	128.81798	53.105598	870.7323	156.52115	111.1589	917.89038	196.32683	127.34593	782.67175	-232.01053	-140.29083	805.86902	-113.3514	-26.455282	827.84198	-369.94363	-110.05239	830.24298	-336.69122
